<svg width="329" height="187" viewBox="0 0 329 187" fill="none" xmlns="http://www.w3.org/2000/svg">
<path d="M41.4414 9.20165C41.4414 4.36565 45.3618 0.445312 50.1977 0.445312H278.784C283.62 0.445312 287.541 4.36566 287.541 9.20165V177.416C287.541 182.252 283.62 186.172 278.784 186.172H50.1977C45.3618 186.172 41.4414 182.252 41.4414 177.416V9.20165Z" fill="url(#paint0_linear_2404_90535)"/>
<path d="M187.867 145.388C187.867 143.478 189.416 141.93 191.326 141.93H201.271C203.181 141.93 204.73 143.478 204.73 145.388V155.33C204.73 157.24 203.181 158.788 201.271 158.788H191.326C189.416 158.788 187.867 157.24 187.867 155.33V145.388Z" fill="#51CB9C"/>
<path d="M193.814 153.597L190.893 150.348L193.814 147.113H195.208L192.275 150.348L195.208 153.597H193.814Z" fill="white"/>
<path d="M197.374 147.113H198.768L201.702 150.348L198.768 153.597H197.374L200.308 150.348L197.374 147.113Z" fill="white"/>
<path d="M133.023 53.6729C133.023 51.7631 134.572 50.2148 136.482 50.2148H146.427C148.338 50.2148 149.886 51.7631 149.886 53.6729V63.615C149.886 65.5248 148.338 67.0731 146.427 67.0731H136.482C134.572 67.0731 133.023 65.5248 133.023 63.615V53.6729Z" fill="#1ABCFE"/>
<path fill-rule="evenodd" clip-rule="evenodd" d="M142.942 56.5792L141.572 54.4844H137.465V63.5619H145.68V56.5792H142.942ZM144.599 57.6598H142.357L140.988 55.565H138.546V62.4812H144.599V57.6598Z" fill="white"/>
<path d="M219.205 72.5675C219.205 70.6576 220.754 69.1094 222.664 69.1094H232.609C234.519 69.1094 236.068 70.6576 236.068 72.5675V82.5095C236.068 84.4194 234.519 85.9676 232.609 85.9676H222.664C220.754 85.9676 219.205 84.4194 219.205 82.5095V72.5675Z" fill="#FFC04A"/>
<path d="M223.529 77.1024C224.229 76.9721 224.579 76.6122 224.579 76.0226C224.579 75.762 224.544 75.3164 224.476 74.6856C224.407 74.0137 224.373 73.5269 224.373 73.2252C224.373 72.7316 224.51 72.3545 224.784 72.0939C225.066 71.8334 225.439 71.7031 225.906 71.7031H226.502V72.5156H226.081C225.813 72.5156 225.614 72.5773 225.484 72.7007C225.354 72.8173 225.288 73.0127 225.288 73.2869C225.288 73.4857 225.302 73.7326 225.33 74.0274C225.357 74.3154 225.374 74.5108 225.381 74.6136C225.45 75.2718 225.484 75.7517 225.484 76.0534C225.484 76.4168 225.391 76.7219 225.206 76.9687C225.028 77.2087 224.75 77.3698 224.373 77.4521V77.4726C224.75 77.5549 225.028 77.7195 225.206 77.9663C225.391 78.2131 225.484 78.5182 225.484 78.8816C225.484 79.1833 225.45 79.6632 225.381 80.3214C225.374 80.4243 225.357 80.6231 225.33 80.9179C225.302 81.2059 225.288 81.4493 225.288 81.6481C225.288 81.9223 225.354 82.1177 225.484 82.2343C225.614 82.3577 225.813 82.4194 226.081 82.4194H226.502V83.2319H225.906C225.439 83.2319 225.066 83.1016 224.784 82.8411C224.51 82.5805 224.373 82.2035 224.373 81.7098C224.373 81.4081 224.407 80.9213 224.476 80.2494C224.544 79.6186 224.579 79.173 224.579 78.9125C224.579 78.3228 224.229 77.9629 223.529 77.8326V77.1024Z" fill="#1C1E53"/>
<path d="M231.869 77.8326C231.17 77.9629 230.82 78.3228 230.82 78.9125C230.82 79.173 230.854 79.6187 230.923 80.2494C230.992 80.9213 231.026 81.4081 231.026 81.7098C231.026 82.2035 230.885 82.5805 230.604 82.8411C230.33 83.1016 229.959 83.2319 229.493 83.2319H228.896V82.4194H229.318C229.586 82.4194 229.785 82.3577 229.915 82.2343C230.045 82.1178 230.11 81.9223 230.11 81.6481C230.11 81.4493 230.097 81.2059 230.069 80.9179C230.042 80.6231 230.025 80.4243 230.018 80.3214C229.949 79.6632 229.915 79.1833 229.915 78.8816C229.915 78.5182 230.004 78.2131 230.182 77.9663C230.368 77.7195 230.649 77.5549 231.026 77.4726V77.4521C230.649 77.3698 230.368 77.2087 230.182 76.9687C230.004 76.7219 229.915 76.4168 229.915 76.0534C229.915 75.7517 229.949 75.2718 230.018 74.6136C230.025 74.5108 230.042 74.3154 230.069 74.0274C230.097 73.7326 230.11 73.4857 230.11 73.2869C230.11 73.0127 230.045 72.8173 229.915 72.7007C229.785 72.5773 229.586 72.5156 229.318 72.5156H228.896V71.7031H229.493C229.959 71.7031 230.33 71.8334 230.604 72.0939C230.885 72.3545 231.026 72.7316 231.026 73.2252C231.026 73.5269 230.992 74.0137 230.923 74.6856C230.854 75.3164 230.82 75.762 230.82 76.0226C230.82 76.6122 231.17 76.9721 231.869 77.1024V77.8326Z" fill="#1C1E53"/>
<path d="M0.296875 52.5225C0.296875 49.4682 2.77288 46.9922 5.82719 46.9922H94.3123C97.3666 46.9922 99.8426 49.4682 99.8426 52.5225V109.669C99.8426 112.723 97.3666 115.199 94.3123 115.199H5.8272C2.77289 115.199 0.296875 112.723 0.296875 109.669V52.5225Z" fill="url(#paint1_linear_2404_90535)"/>
<path fill-rule="evenodd" clip-rule="evenodd" d="M94.3123 47.9139H5.82719C3.28194 47.9139 1.21859 49.9772 1.21859 52.5225V109.669C1.21859 112.214 3.28194 114.278 5.8272 114.278H94.3123C96.8576 114.278 98.9209 112.214 98.9209 109.669V52.5225C98.9209 49.9772 96.8576 47.9139 94.3123 47.9139ZM5.82719 46.9922C2.77288 46.9922 0.296875 49.4682 0.296875 52.5225V109.669C0.296875 112.723 2.77289 115.199 5.8272 115.199H94.3123C97.3666 115.199 99.8426 112.723 99.8426 109.669V52.5225C99.8426 49.4682 97.3666 46.9922 94.3123 46.9922H5.82719Z" fill="url(#paint2_linear_2404_90535)"/>
<path d="M11.3574 64.9644C11.3574 63.4372 12.5954 62.1992 14.1226 62.1992H39.9307C41.4579 62.1992 42.6959 63.4372 42.6959 64.9644V94.4594C42.6959 95.9866 41.4579 97.2246 39.9307 97.2246H14.1226C12.5954 97.2246 11.3574 95.9866 11.3574 94.4594V64.9644Z" fill="white" fill-opacity="0.17"/>
<path d="M48.6875 64.7339C48.6875 63.3341 49.8223 62.1992 51.2222 62.1992H83.9433C85.3432 62.1992 86.478 63.3341 86.478 64.7339C86.478 66.1338 85.3432 67.2687 83.9433 67.2687H51.2222C49.8223 67.2687 48.6875 66.1338 48.6875 64.7339Z" fill="white" fill-opacity="0.6"/>
<path d="M48.6875 74.4136C48.6875 73.0137 49.8223 71.8789 51.2222 71.8789H83.9433C85.3432 71.8789 86.478 73.0137 86.478 74.4136C86.478 75.8135 85.3432 76.9484 83.9433 76.9484H51.2222C49.8223 76.9484 48.6875 75.8135 48.6875 74.4136Z" fill="white" fill-opacity="0.26"/>
<path d="M48.6875 90.5454C48.6875 85.8367 52.5047 82.0195 57.2134 82.0195H57.6743C62.383 82.0195 66.2002 85.8367 66.2002 90.5454C66.2002 95.2542 62.383 99.0714 57.6743 99.0714H57.2134C52.5047 99.0714 48.6875 95.2542 48.6875 90.5454Z" fill="#767799"/>
<path d="M46.8438 17.725C46.8438 12.5072 51.0736 8.27734 56.2914 8.27734H268.748C273.966 8.27734 278.195 12.5072 278.195 17.725C278.195 22.9428 273.966 27.1726 268.748 27.1726H56.2914C51.0736 27.1726 46.8438 22.9428 46.8438 17.725Z" fill="url(#paint3_linear_2404_90535)"/>
<path d="M239.945 103.218C239.945 100.164 242.421 97.6875 245.476 97.6875H322.9C325.954 97.6875 328.43 100.164 328.43 103.218V160.364C328.43 163.419 325.954 165.895 322.9 165.895H245.476C242.421 165.895 239.945 163.419 239.945 160.364V103.218Z" fill="url(#paint4_linear_2404_90535)"/>
<path fill-rule="evenodd" clip-rule="evenodd" d="M322.9 98.6092H245.476C242.93 98.6092 240.867 100.673 240.867 103.218V160.364C240.867 162.91 242.93 164.973 245.476 164.973H322.9C325.445 164.973 327.509 162.91 327.509 160.364V103.218C327.509 100.673 325.445 98.6092 322.9 98.6092ZM245.476 97.6875C242.421 97.6875 239.945 100.164 239.945 103.218V160.364C239.945 163.419 242.421 165.895 245.476 165.895H322.9C325.954 165.895 328.43 163.419 328.43 160.364V103.218C328.43 100.164 325.954 97.6875 322.9 97.6875H245.476Z" fill="url(#paint5_linear_2404_90535)"/>
<path d="M248.137 108.75C248.137 107.732 248.962 106.906 249.98 106.906H318.392C319.41 106.906 320.236 107.732 320.236 108.75C320.236 109.768 319.41 110.593 318.392 110.593H249.98C248.962 110.593 248.137 109.768 248.137 108.75Z" fill="url(#paint6_linear_2404_90535)"/>
<path d="M248.137 117.965C248.137 116.946 248.962 116.121 249.98 116.121H272.101C273.12 116.121 273.945 116.946 273.945 117.965C273.945 118.983 273.12 119.808 272.101 119.808H249.98C248.962 119.808 248.137 118.983 248.137 117.965Z" fill="url(#paint7_linear_2404_90535)"/>
<path d="M277.223 117.965C277.223 116.946 278.048 116.121 279.066 116.121H287.669C288.687 116.121 289.512 116.946 289.512 117.965C289.512 118.983 288.687 119.808 287.669 119.808H279.066C278.048 119.808 277.223 118.983 277.223 117.965Z" fill="url(#paint8_linear_2404_90535)"/>
<path d="M248.137 154.832C248.137 153.814 248.962 152.988 249.98 152.988H272.101C273.12 152.988 273.945 153.814 273.945 154.832C273.945 155.85 273.12 156.675 272.101 156.675H249.98C248.962 156.675 248.137 155.85 248.137 154.832Z" fill="url(#paint9_linear_2404_90535)"/>
<path d="M277.223 154.832C277.223 153.814 278.048 152.988 279.066 152.988H287.669C288.687 152.988 289.512 153.814 289.512 154.832C289.512 155.85 288.687 156.675 287.669 156.675H279.066C278.048 156.675 277.223 155.85 277.223 154.832Z" fill="url(#paint10_linear_2404_90535)"/>
<path d="M262.885 136.402C262.885 135.384 263.71 134.559 264.728 134.559H270.873C271.891 134.559 272.716 135.384 272.716 136.402C272.716 137.42 271.891 138.245 270.873 138.245H264.728C263.71 138.245 262.885 137.42 262.885 136.402Z" fill="url(#paint11_linear_2404_90535)"/>
<path d="M276.404 136.402C276.404 135.384 277.23 134.559 278.248 134.559H304.466C305.484 134.559 306.309 135.384 306.309 136.402C306.309 137.42 305.484 138.245 304.466 138.245H278.248C277.23 138.245 276.404 137.42 276.404 136.402Z" fill="url(#paint12_linear_2404_90535)"/>
<path d="M248.137 136.402C248.137 135.384 248.962 134.559 249.98 134.559H258.583C259.601 134.559 260.426 135.384 260.426 136.402C260.426 137.42 259.601 138.245 258.583 138.245H249.98C248.962 138.245 248.137 137.42 248.137 136.402Z" fill="url(#paint13_linear_2404_90535)"/>
<path d="M248.137 127.183C248.137 126.165 248.962 125.34 249.98 125.34H279.885C280.903 125.34 281.728 126.165 281.728 127.183C281.728 128.201 280.903 129.027 279.885 129.027H249.98C248.962 129.027 248.137 128.201 248.137 127.183Z" fill="url(#paint14_linear_2404_90535)"/>
<path d="M284.598 127.183C284.598 126.165 285.423 125.34 286.441 125.34H300.369C301.387 125.34 302.213 126.165 302.213 127.183C302.213 128.201 301.387 129.027 300.369 129.027H286.441C285.423 129.027 284.598 128.201 284.598 127.183Z" fill="url(#paint15_linear_2404_90535)"/>
<path d="M248.137 145.613C248.137 144.595 248.962 143.77 249.98 143.77H279.885C280.903 143.77 281.728 144.595 281.728 145.613C281.728 146.631 280.903 147.456 279.885 147.456H249.98C248.962 147.456 248.137 146.631 248.137 145.613Z" fill="url(#paint16_linear_2404_90535)"/>
<path d="M63.7341 17.832C63.7341 19.5773 62.3189 20.9921 60.5731 20.9921C58.8273 20.9921 57.4121 19.5773 57.4121 17.832C57.4121 16.0867 58.8273 14.6719 60.5731 14.6719C62.3189 14.6719 63.7341 16.0867 63.7341 17.832Z" fill="#FED280"/>
<path d="M74.7985 17.832C74.7985 19.5773 73.3833 20.9921 71.6375 20.9921C69.8918 20.9921 68.4766 19.5773 68.4766 17.832C68.4766 16.0867 69.8918 14.6719 71.6375 14.6719C73.3833 14.6719 74.7985 16.0867 74.7985 17.832Z" fill="#8CFEE3" fill-opacity="0.9"/>
<path d="M85.863 17.832C85.863 19.5773 84.4478 20.9921 82.702 20.9921C80.9562 20.9921 79.541 19.5773 79.541 17.832C79.541 16.0867 80.9562 14.6719 82.702 14.6719C84.4478 14.6719 85.863 16.0867 85.863 17.832Z" fill="#FF8DA9" fill-opacity="0.9"/>
<path d="M25.0839 79.1219C24.2149 77.9884 22.4835 78.0636 21.7161 79.2683L15.622 88.8349C14.7496 90.2044 15.7334 91.9974 17.3571 91.9974H36.7667C38.4465 91.9974 39.4182 90.0932 38.4326 88.733L34.9912 83.9839C34.2294 82.9327 32.6964 82.8412 31.815 83.7942L31.7508 83.8636C30.8847 84.8001 29.3839 84.7308 28.6078 83.7184L25.0839 79.1219Z" fill="white"/>
<path d="M37.0595 72.4643C37.0595 74.1188 35.7184 75.4599 34.0639 75.4599C32.4095 75.4599 31.0684 74.1188 31.0684 72.4643C31.0684 70.8099 32.4095 69.4688 34.0639 69.4688C35.7184 69.4688 37.0595 70.8099 37.0595 72.4643Z" fill="#C4C5DC"/>
<path fill-rule="evenodd" clip-rule="evenodd" d="M99.2656 79.2519C99.2656 78.9337 99.5235 78.6758 99.8417 78.6758H168.518V92.2426C168.518 92.5608 168.26 92.8187 167.942 92.8187C167.624 92.8187 167.366 92.5608 167.366 92.2426V79.8279H99.8417C99.5235 79.8279 99.2656 79.57 99.2656 79.2519Z" fill="url(#paint17_linear_2404_90535)"/>
<path fill-rule="evenodd" clip-rule="evenodd" d="M240.52 131.791C240.52 132.109 240.262 132.367 239.943 132.367L167.58 132.367L167.58 119.315C167.58 118.997 167.838 118.739 168.156 118.739C168.474 118.739 168.732 118.997 168.732 119.315L168.732 131.215L239.943 131.215C240.262 131.215 240.52 131.473 240.52 131.791Z" fill="url(#paint18_linear_2404_90535)"/>
<g filter="url(#filter0_d_2404_90535)">
<path fill-rule="evenodd" clip-rule="evenodd" d="M166.963 103.075C166.961 103.187 166.98 103.24 167.083 103.24H169.537C169.982 103.273 170.379 103.384 170.716 103.6C170.949 103.75 171.12 103.928 171.248 104.126C171.476 104.476 171.605 104.982 171.675 105.39C171.705 105.567 171.719 105.732 171.687 105.808C171.672 105.844 171.649 105.868 171.619 105.88C171.45 105.944 171.272 105.724 171.176 105.619C170.724 105.117 170.066 104.91 169.29 104.871H167.046C166.966 104.884 166.937 104.94 166.945 105.027V105.625C166.94 105.824 166.835 105.892 166.625 105.825L164.692 104.389L164.502 104.248L164.454 104.212C164.298 104.079 164.362 103.959 164.502 103.855L164.649 103.745L166.501 102.365C166.727 102.196 166.963 102.151 166.963 102.514V103.075ZM169.114 109.182C169.116 109.071 169.097 109.017 168.995 109.017H166.54C166.096 108.984 165.698 108.873 165.361 108.657C165.127 108.506 164.955 108.327 164.827 108.128C164.594 107.768 164.442 107.182 164.386 106.761C164.368 106.627 164.365 106.51 164.39 106.449C164.405 106.413 164.428 106.389 164.459 106.377C164.627 106.313 164.806 106.533 164.901 106.639C165.354 107.14 166.011 107.347 166.787 107.386H169.031C169.112 107.373 169.14 107.317 169.132 107.23V106.632C169.137 106.433 169.243 106.365 169.453 106.432L171.385 107.868L171.575 108.009L171.624 108.046C171.779 108.178 171.715 108.298 171.576 108.402L171.428 108.512L169.577 109.892C169.351 110.061 169.114 110.106 169.114 109.743L169.114 109.182Z" fill="#88F1DB"/>
</g>
<circle cx="167.962" cy="105.884" r="9.77197" stroke="white" stroke-width="1.02863"/>
<path d="M127.955 79.2531C127.955 81.7984 125.892 83.8617 123.347 83.8617C120.802 83.8617 118.738 81.7984 118.738 79.2531C118.738 76.7079 120.802 74.6445 123.347 74.6445C125.892 74.6445 127.955 76.7079 127.955 79.2531Z" fill="#383A68"/>
<path fill-rule="evenodd" clip-rule="evenodd" d="M123.347 82.94C125.383 82.94 127.034 81.2893 127.034 79.2531C127.034 77.2169 125.383 75.5663 123.347 75.5663C121.311 75.5663 119.66 77.2169 119.66 79.2531C119.66 81.2893 121.311 82.94 123.347 82.94ZM123.347 83.8617C125.892 83.8617 127.955 81.7984 127.955 79.2531C127.955 76.7079 125.892 74.6445 123.347 74.6445C120.802 74.6445 118.738 76.7079 118.738 79.2531C118.738 81.7984 120.802 83.8617 123.347 83.8617Z" fill="#63648A"/>
<path d="M228.422 131.792C228.422 134.337 226.359 136.401 223.814 136.401C221.268 136.401 219.205 134.337 219.205 131.792C219.205 129.247 221.268 127.184 223.814 127.184C226.359 127.184 228.422 129.247 228.422 131.792Z" fill="#383A68"/>
<path fill-rule="evenodd" clip-rule="evenodd" d="M223.814 135.479C225.85 135.479 227.501 133.828 227.501 131.792C227.501 129.756 225.85 128.105 223.814 128.105C221.777 128.105 220.127 129.756 220.127 131.792C220.127 133.828 221.777 135.479 223.814 135.479ZM223.814 136.401C226.359 136.401 228.422 134.337 228.422 131.792C228.422 129.247 226.359 127.184 223.814 127.184C221.268 127.184 219.205 129.247 219.205 131.792C219.205 134.337 221.268 136.401 223.814 136.401Z" fill="#63648A"/>
<path d="M69.4258 85.4776C69.4258 83.5678 70.9744 82.0195 72.8848 82.0195H82.8296C84.7399 82.0195 86.2886 83.5678 86.2886 85.4776V95.4197C86.2886 97.3295 84.7399 98.8778 82.8296 98.8778H72.8848C70.9744 98.8778 69.4258 97.3295 69.4258 95.4197V85.4776Z" fill="#767799"/>
<path fill-rule="evenodd" clip-rule="evenodd" d="M79.5339 95.2812H76.418V93.9844H79.5339V95.2812Z" fill="white"/>
<path fill-rule="evenodd" clip-rule="evenodd" d="M73.5332 86.5586H82.1808V88.6447H80.8837V87.8554H74.8303V88.6447H73.5332V86.5586Z" fill="white"/>
<path fill-rule="evenodd" clip-rule="evenodd" d="M77.2892 94.7057L77.3691 87.2773L78.6659 87.2913L78.586 94.7196L77.2892 94.7057Z" fill="white"/>
<defs>
<filter id="filter0_d_2404_90535" x="157.163" y="97.0951" width="21.7524" height="22.182" filterUnits="userSpaceOnUse" color-interpolation-filters="sRGB">
<feFlood flood-opacity="0" result="BackgroundImageFix"/>
<feColorMatrix in="SourceAlpha" type="matrix" values="0 0 0 0 0 0 0 0 0 0 0 0 0 0 0 0 0 0 127 0" result="hardAlpha"/>
<feOffset dy="2.05726"/>
<feGaussianBlur stdDeviation="3.6002"/>
<feComposite in2="hardAlpha" operator="out"/>
<feColorMatrix type="matrix" values="0 0 0 0 0.533333 0 0 0 0 0.945098 0 0 0 0 0.858824 0 0 0 1 0"/>
<feBlend mode="normal" in2="BackgroundImageFix" result="effect1_dropShadow_2404_90535"/>
<feBlend mode="normal" in="SourceGraphic" in2="effect1_dropShadow_2404_90535" result="shape"/>
</filter>
<linearGradient id="paint0_linear_2404_90535" x1="41.4414" y1="0.445312" x2="485.14" y2="335.786" gradientUnits="userSpaceOnUse">
<stop offset="0.00488758" stop-color="#030C3F"/>
<stop offset="1" stop-color="#637BFF"/>
</linearGradient>
<linearGradient id="paint1_linear_2404_90535" x1="192.218" y1="225.299" x2="-51.2916" y2="-23.4064" gradientUnits="userSpaceOnUse">
<stop stop-color="#253482"/>
<stop offset="1" stop-color="#0B154D"/>
</linearGradient>
<linearGradient id="paint2_linear_2404_90535" x1="50.0697" y1="46.9922" x2="92.4468" y2="220.484" gradientUnits="userSpaceOnUse">
<stop stop-color="white" stop-opacity="0.17"/>
<stop offset="1" stop-opacity="0"/>
</linearGradient>
<linearGradient id="paint3_linear_2404_90535" x1="162.52" y1="8.27733" x2="197.479" y2="116.054" gradientUnits="userSpaceOnUse">
<stop stop-color="white" stop-opacity="0.15"/>
<stop offset="1" stop-color="#C4C4C4" stop-opacity="0"/>
</linearGradient>
<linearGradient id="paint4_linear_2404_90535" x1="410.542" y1="275.995" x2="168.112" y2="55.9027" gradientUnits="userSpaceOnUse">
<stop stop-color="#40416E"/>
<stop offset="1" stop-color="#0B154D"/>
</linearGradient>
<linearGradient id="paint5_linear_2404_90535" x1="284.188" y1="97.6875" x2="331.16" y2="268.623" gradientUnits="userSpaceOnUse">
<stop stop-color="white" stop-opacity="0.17"/>
<stop offset="1" stop-opacity="0"/>
</linearGradient>
<linearGradient id="paint6_linear_2404_90535" x1="284.186" y1="106.906" x2="288.72" y2="129.228" gradientUnits="userSpaceOnUse">
<stop stop-color="white" stop-opacity="0.56"/>
<stop offset="1" stop-color="#C4C4C4" stop-opacity="0"/>
</linearGradient>
<linearGradient id="paint7_linear_2404_90535" x1="261.041" y1="116.121" x2="271.016" y2="133.704" gradientUnits="userSpaceOnUse">
<stop stop-color="#F9C746" stop-opacity="0.52"/>
<stop offset="1" stop-color="#C4C4C4" stop-opacity="0"/>
</linearGradient>
<linearGradient id="paint8_linear_2404_90535" x1="283.367" y1="116.121" x2="294.813" y2="125.727" gradientUnits="userSpaceOnUse">
<stop stop-color="#84EBE5" stop-opacity="0.62"/>
<stop offset="1" stop-color="#C4C4C4" stop-opacity="0"/>
</linearGradient>
<linearGradient id="paint9_linear_2404_90535" x1="261.041" y1="152.988" x2="271.016" y2="170.571" gradientUnits="userSpaceOnUse">
<stop stop-color="white" stop-opacity="0.56"/>
<stop offset="1" stop-color="#C4C4C4" stop-opacity="0"/>
</linearGradient>
<linearGradient id="paint10_linear_2404_90535" x1="283.367" y1="152.988" x2="294.813" y2="162.594" gradientUnits="userSpaceOnUse">
<stop stop-color="#F47D9E"/>
<stop offset="1" stop-color="#C4C4C4" stop-opacity="0"/>
</linearGradient>
<linearGradient id="paint11_linear_2404_90535" x1="267.801" y1="134.559" x2="278.557" y2="141.781" gradientUnits="userSpaceOnUse">
<stop stop-color="#F2C87D"/>
<stop offset="1" stop-color="#C4C4C4" stop-opacity="0"/>
</linearGradient>
<linearGradient id="paint12_linear_2404_90535" x1="291.357" y1="134.559" x2="300.536" y2="153.306" gradientUnits="userSpaceOnUse">
<stop stop-color="white" stop-opacity="0.62"/>
<stop offset="1" stop-color="#C4C4C4" stop-opacity="0"/>
</linearGradient>
<linearGradient id="paint13_linear_2404_90535" x1="251.414" y1="133.637" x2="270.278" y2="136.3" gradientUnits="userSpaceOnUse">
<stop stop-color="#F37D9D"/>
<stop offset="1" stop-color="#C4C4C4" stop-opacity="0"/>
</linearGradient>
<linearGradient id="paint14_linear_2404_90535" x1="264.933" y1="125.34" x2="273.446" y2="144.871" gradientUnits="userSpaceOnUse">
<stop stop-color="white" stop-opacity="0.58"/>
<stop offset="1" stop-color="#C4C4C4" stop-opacity="0"/>
</linearGradient>
<linearGradient id="paint15_linear_2404_90535" x1="293.405" y1="125.34" x2="304.831" y2="139.085" gradientUnits="userSpaceOnUse">
<stop stop-color="white" stop-opacity="0.45"/>
<stop offset="1" stop-color="#C4C4C4" stop-opacity="0"/>
</linearGradient>
<linearGradient id="paint16_linear_2404_90535" x1="264.933" y1="143.77" x2="273.446" y2="163.301" gradientUnits="userSpaceOnUse">
<stop stop-color="#70D1E7"/>
<stop offset="1" stop-color="#C4C4C4" stop-opacity="0"/>
</linearGradient>
<linearGradient id="paint17_linear_2404_90535" x1="162.219" y1="76.07" x2="69.7888" y2="103.966" gradientUnits="userSpaceOnUse">
<stop stop-color="#ABACC6"/>
<stop offset="1" stop-color="#767799" stop-opacity="0"/>
</linearGradient>
<linearGradient id="paint18_linear_2404_90535" x1="174.24" y1="134.973" x2="270.717" y2="104.302" gradientUnits="userSpaceOnUse">
<stop stop-color="#C2C2D5"/>
<stop offset="1" stop-color="#767799" stop-opacity="0"/>
</linearGradient>
</defs>
</svg>
